<?xml version="1.0" standalone="no"?>
<!DOCTYPE svg PUBLIC "-//W3C//DTD SVG 20010904//EN"
 "http://www.w3.org/TR/2001/REC-SVG-20010904/DTD/svg10.dtd">
<svg version="1.0" xmlns="http://www.w3.org/2000/svg"
 width="942.000000pt" height="942.000000pt" viewBox="0 0 942.000000 942.000000"
 preserveAspectRatio="xMidYMid meet">
<metadata>
Created by potrace 1.14, written by Peter Selinger 2001-2017
</metadata>
<g transform="translate(0.000000,942.000000) scale(0.100000,-0.100000)"
fill="#000000" stroke="none">
<path d="M3020 9413 c0 -5 32 -30 71 -57 38 -28 80 -59 92 -71 12 -11 42 -37
67 -56 25 -20 66 -56 91 -80 26 -24 60 -56 75 -70 129 -117 446 -470 570 -634
59 -79 99 -130 104 -135 3 -3 17 -21 30 -40 13 -19 27 -37 31 -40 3 -3 19 -25
35 -49 16 -24 36 -54 44 -66 155 -230 296 -445 332 -508 4 -6 26 -42 48 -80
22 -37 40 -69 40 -71 0 -2 18 -34 40 -70 22 -36 40 -70 40 -75 0 -5 6 -16 13
-23 6 -7 31 -49 54 -93 60 -115 303 -602 303 -608 0 -3 20 -48 45 -101 25 -53
45 -98 45 -100 0 -2 12 -30 27 -62 15 -33 27 -61 28 -64 1 -3 9 -23 19 -45 32
-73 87 -212 91 -230 2 -5 14 -39 28 -75 46 -119 61 -165 59 -172 -1 -5 3 -8 9
-8 5 0 7 -4 4 -10 -3 -5 -2 -10 3 -10 5 0 9 -7 10 -15 1 -8 3 -22 4 -30 1 -8
6 -12 11 -8 5 3 6 -4 2 -17 -5 -17 -4 -21 5 -15 9 5 11 4 6 -4 -4 -6 0 -18 9
-27 9 -9 13 -19 9 -23 -4 -3 -9 0 -11 6 -3 9 -10 10 -23 3 -15 -8 -20 -3 -34
35 -10 24 -16 46 -15 47 1 2 -4 14 -11 28 -8 14 -15 27 -15 30 -2 14 -40 107
-48 118 -5 6 -7 12 -3 12 4 0 0 13 -9 30 -8 16 -15 31 -14 32 0 2 -5 17 -11
33 -7 17 -17 41 -22 55 -6 14 -16 39 -24 55 -7 17 -23 55 -34 85 -12 30 -32
78 -46 108 -13 29 -24 55 -24 57 0 2 -20 48 -45 101 -25 53 -45 97 -45 99 0
14 -182 385 -262 536 -71 132 -194 343 -273 469 -39 62 -218 334 -227 345 -4
5 -42 57 -82 115 -41 58 -79 110 -83 115 -5 6 -22 28 -38 50 -17 22 -32 42
-36 45 -3 3 -19 25 -36 50 -17 25 -39 54 -50 65 -10 11 -30 36 -45 57 -15 20
-33 42 -40 50 -7 7 -31 36 -53 63 -22 28 -44 55 -50 61 -5 6 -32 37 -60 69
-27 31 -66 76 -85 98 -48 55 -446 457 -453 457 -3 0 -20 15 -39 33 -19 17 -58
52 -87 77 -30 25 -59 51 -67 58 -18 18 -19 17 -20 -36 -1 -151 -181 -304 -508
-434 -112 -44 -145 -65 -194 -117 -32 -35 -108 -175 -116 -216 -3 -11 -14 -58
-26 -105 -12 -47 -23 -94 -25 -105 -1 -11 -5 -33 -9 -50 -3 -16 -8 -39 -10
-50 -10 -54 -19 -112 -21 -125 0 -9 -4 -20 -8 -27 -9 -15 7 -26 78 -56 70 -29
173 -82 230 -119 22 -13 45 -27 50 -29 6 -2 43 -26 83 -54 41 -27 81 -54 90
-60 10 -5 19 -12 22 -15 5 -5 65 -52 141 -110 19 -14 40 -32 49 -40 9 -8 40
-35 70 -60 78 -64 143 -125 304 -287 152 -152 170 -172 261 -278 33 -38 65
-74 71 -80 6 -5 28 -32 50 -60 21 -27 45 -56 52 -64 8 -8 32 -39 55 -70 23
-31 44 -58 48 -61 3 -3 32 -41 65 -85 32 -44 65 -86 72 -93 6 -7 12 -17 12
-21 0 -4 8 -16 18 -27 9 -10 30 -39 47 -64 16 -25 33 -47 36 -50 28 -23 265
-403 315 -507 64 -130 65 -132 50 -165 -41 -90 -155 -276 -199 -323 -10 -11
-32 -38 -49 -60 -17 -22 -56 -60 -85 -85 -30 -25 -59 -50 -66 -55 -79 -70
-516 -291 -679 -344 -36 -12 -40 -11 -80 22 -40 32 -155 110 -290 199 -32 21
-58 34 -58 30 0 -4 56 -43 123 -87 67 -44 124 -82 127 -85 12 -12 79 -60 85
-60 3 0 15 -9 26 -19 20 -18 20 -20 2 -29 -14 -8 -28 -3 -68 26 -61 44 -325
222 -329 222 -2 0 -50 28 -107 63 -178 109 -380 215 -589 310 -230 105 -618
256 -698 272 -9 2 -30 9 -47 15 -16 6 -37 13 -45 15 -8 3 -24 7 -36 10 -24 8
-104 -51 -150 -111 -58 -74 -72 -117 -72 -213 1 -130 -40 -234 -120 -309 -40
-37 -94 -74 -112 -77 -3 0 -14 -6 -25 -12 -18 -11 -18 -12 10 -18 17 -4 44
-11 61 -16 17 -5 40 -11 50 -13 39 -8 363 -108 474 -147 63 -22 122 -41 130
-44 17 -5 147 -52 170 -62 8 -3 17 -7 20 -7 3 -1 15 -7 27 -14 13 -7 23 -10
23 -6 0 3 6 2 13 -4 7 -6 39 -20 72 -33 33 -12 84 -32 113 -45 29 -13 55 -24
57 -24 7 0 109 -48 290 -136 129 -62 181 -90 310 -162 123 -69 424 -259 445
-282 3 -3 22 -16 42 -30 21 -14 38 -28 38 -32 0 -5 6 -8 14 -8 8 0 16 -3 18
-8 1 -4 23 -23 48 -42 25 -19 47 -37 50 -40 3 -3 39 -34 80 -69 96 -83 374
-361 425 -426 22 -27 45 -54 51 -60 27 -24 178 -232 266 -365 192 -291 340
-571 464 -880 19 -47 39 -94 44 -105 24 -54 128 -368 145 -441 3 -11 14 -53
26 -94 11 -41 22 -80 23 -87 4 -25 18 -27 16 -3 -1 14 -1 27 0 30 6 12 7 50 1
50 -3 0 -5 21 -4 47 3 77 4 79 15 53 22 -54 59 -156 63 -174 3 -11 9 -24 15
-30 8 -8 10 -7 6 4 -2 8 -7 38 -10 65 l-5 50 15 -35 c25 -57 71 -204 89 -286
10 -41 19 -73 21 -71 3 2 0 24 -5 48 -5 24 -12 66 -16 93 -3 27 -8 52 -10 56
-2 3 -6 25 -10 50 -4 25 -8 47 -11 51 -2 3 -6 24 -8 45 -3 21 -19 94 -35 161
-17 67 -33 132 -36 145 -2 13 -12 48 -20 78 -9 30 -18 65 -21 77 -2 12 -9 35
-15 50 -6 16 -13 37 -15 48 -10 57 -181 550 -213 620 -25 52 -61 136 -61 141
0 15 -185 394 -250 512 -30 53 -36 70 -22 63 42 -23 192 -197 241 -281 8 -14
32 -53 53 -88 46 -74 131 -240 174 -337 17 -39 37 -83 44 -100 8 -16 14 -32
14 -35 1 -3 4 -9 8 -15 3 -5 17 -39 31 -75 14 -36 31 -78 38 -95 7 -16 13 -34
15 -40 9 -32 31 -86 37 -91 4 -4 7 -14 7 -22 0 -8 6 -28 14 -45 13 -29 120
-345 121 -357 0 -6 22 -77 45 -150 16 -48 33 -109 46 -160 17 -68 63 -206 58
-175 -4 22 -8 55 -10 73 -2 18 -6 42 -9 52 -3 10 -8 35 -11 56 -2 21 -9 54
-14 74 -8 32 -47 216 -56 267 -2 12 -9 34 -14 48 -5 14 -7 25 -5 25 2 0 0 11
-5 25 -5 14 -12 36 -14 48 -10 46 -62 248 -72 277 -3 8 -5 17 -6 20 0 3 -6 20
-13 37 -8 18 -12 33 -10 33 2 0 -7 33 -21 72 -13 40 -25 75 -26 78 0 3 -2 10
-3 15 -2 6 -5 19 -8 30 -3 11 -15 45 -27 75 -12 30 -23 62 -25 70 -2 8 -10 31
-18 50 -26 64 -30 75 -33 88 -1 8 -6 21 -10 30 -4 9 -8 19 -9 22 -18 54 -107
252 -173 385 -71 144 -199 366 -214 373 -5 2 -8 8 -8 14 0 5 -15 28 -34 51
-18 23 -53 71 -77 107 -24 36 -46 67 -49 70 -3 3 -37 48 -75 100 -39 52 -77
104 -85 115 -8 11 -41 45 -72 75 -54 52 -80 90 -40 59 15 -13 16 -12 3 3 -7
10 -17 16 -21 13 -4 -3 -58 46 -120 108 -73 74 -106 113 -96 115 20 4 71 -20
71 -33 0 -6 10 -24 23 -40 14 -20 20 -23 15 -10 -6 20 -6 20 15 1 23 -20 31
-42 10 -30 -7 4 -8 3 -4 -4 4 -6 13 -9 20 -6 8 3 40 -25 77 -68 35 -40 71 -80
79 -88 9 -8 40 -44 70 -80 30 -36 57 -67 61 -70 3 -3 18 -23 34 -45 16 -22 41
-54 55 -71 64 -79 120 -159 120 -172 0 -6 3 -12 8 -14 10 -4 77 -106 152 -230
35 -59 66 -105 69 -103 2 3 -5 19 -17 35 -12 16 -22 32 -22 35 0 3 -12 24 -27
48 -15 23 -31 51 -37 62 -16 29 -188 287 -206 307 -23 27 -55 67 -101 128 -24
30 -49 59 -56 63 -7 4 -13 12 -13 17 0 5 -10 19 -22 32 -13 13 -51 55 -85 93
-34 39 -96 105 -137 147 -42 43 -76 80 -76 83 0 4 8 4 18 1 9 -3 33 -7 52 -10
19 -3 46 -8 60 -11 14 -3 42 -7 62 -10 20 -3 56 -9 80 -14 23 -5 45 -8 49 -5
4 2 10 0 14 -6 4 -6 10 -8 14 -6 4 3 25 1 47 -4 21 -5 59 -12 84 -15 24 -4 47
-8 50 -10 3 -2 23 -6 45 -9 22 -4 56 -11 75 -16 19 -5 51 -11 70 -14 19 -3 69
-12 110 -21 41 -9 86 -19 100 -21 14 -3 43 -10 65 -16 22 -6 52 -12 66 -14 56
-7 76 -21 87 -61 5 -21 17 -64 26 -95 38 -137 48 -176 63 -233 8 -33 17 -70
19 -82 2 -12 9 -34 14 -48 5 -14 9 -29 8 -33 -1 -4 1 -14 5 -22 6 -17 58 -244
63 -275 1 -11 12 -63 24 -115 12 -52 23 -106 25 -120 2 -14 4 -25 5 -25 1 0 3
-15 6 -34 4 -34 8 -54 19 -101 3 -14 8 -41 10 -60 3 -19 10 -60 15 -90 5 -30
12 -73 15 -95 7 -51 16 -115 21 -137 1 -9 5 -41 9 -70 3 -29 8 -66 11 -83 2
-16 6 -49 8 -73 2 -24 7 -64 10 -90 3 -26 8 -74 11 -107 2 -33 7 -85 10 -115
6 -57 14 -187 19 -300 2 -36 4 -143 4 -239 1 -96 4 -172 8 -169 3 3 7 73 9
154 2 82 7 246 11 364 4 118 8 243 8 277 0 35 4 59 8 55 8 -8 14 -86 24 -320
4 -84 8 -151 10 -150 1 2 5 35 9 73 4 39 9 73 11 76 1 3 4 29 5 57 2 29 6 52
11 52 4 0 8 -8 9 -17 1 -10 3 -29 4 -43 25 -185 45 -429 48 -592 1 -47 6 -90
10 -94 4 -4 8 5 8 19 1 15 2 30 3 35 9 34 23 137 31 227 3 33 8 85 11 115 3
30 7 82 8 115 2 33 7 112 11 175 11 148 13 1041 3 1168 -4 53 -10 140 -13 192
-3 52 -7 106 -10 120 -4 21 -10 74 -20 165 -7 75 -21 175 -30 215 -3 14 -7 41
-10 60 -2 19 -7 46 -10 60 -3 14 -7 41 -11 60 -3 19 -8 47 -10 62 -5 26 -5 26
35 16 23 -6 41 -14 41 -19 0 -15 2 -23 11 -47 5 -12 11 -33 13 -45 2 -12 12
-53 21 -92 9 -38 18 -78 21 -88 2 -10 6 -28 10 -40 4 -12 9 -31 10 -42 2 -11
8 -40 13 -65 19 -83 21 -95 38 -185 9 -49 17 -101 19 -115 1 -14 3 -25 4 -25
1 0 3 -9 4 -20 2 -11 6 -38 10 -60 3 -22 8 -60 11 -85 3 -25 8 -58 11 -73 3
-15 7 -45 9 -67 2 -22 6 -61 10 -88 3 -27 8 -66 10 -88 3 -21 7 -61 10 -89 43
-421 58 -1135 30 -1499 -4 -53 -5 -96 -2 -96 6 0 56 156 63 195 2 14 9 36 14
50 5 14 8 25 5 25 -2 0 0 14 5 32 5 17 12 50 15 72 4 23 11 61 16 86 6 25 12
69 15 99 2 29 7 57 9 62 3 4 8 38 10 76 3 37 8 75 10 83 2 8 7 47 10 85 3 39
8 97 11 130 4 33 8 83 9 112 2 28 5 55 8 60 6 10 1 685 -6 763 -14 162 -19
220 -23 265 -2 28 -6 66 -9 85 -3 19 -7 55 -9 81 -3 25 -7 61 -10 80 -4 18 -8
50 -11 69 -6 48 -12 88 -20 130 -4 19 -8 44 -10 55 -1 11 -6 39 -9 63 -6 33
-4 42 8 42 20 0 25 -10 31 -60 3 -24 8 -46 10 -50 3 -5 7 -28 10 -51 3 -24 8
-53 12 -64 3 -11 7 -30 9 -42 1 -13 5 -42 9 -65 4 -24 9 -54 11 -68 2 -14 5
-41 9 -60 5 -34 12 -90 20 -160 2 -19 6 -60 10 -90 7 -60 11 -115 22 -295 9
-161 9 -583 -1 -720 -4 -60 -9 -130 -10 -155 -2 -25 -7 -74 -12 -110 -4 -36
-9 -73 -10 -82 -1 -10 -3 -21 -4 -25 -1 -5 -2 -12 -1 -17 1 -5 -3 -32 -8 -60
-6 -28 -13 -67 -16 -86 -3 -19 -8 -46 -10 -60 -3 -14 -7 -54 -10 -90 -3 -36
-7 -72 -10 -80 -2 -8 -7 -40 -10 -70 -3 -30 -8 -66 -10 -80 -3 -14 -7 -38 -10
-55 -6 -46 -14 -94 -29 -162 -7 -35 -9 -63 -6 -63 4 0 12 24 19 53 6 28 13 59
15 67 7 23 35 156 41 192 3 18 8 40 10 48 2 8 6 33 9 55 4 22 8 51 11 65 7 40
17 103 20 130 1 14 5 43 9 65 4 22 9 60 11 84 2 24 7 62 11 85 4 23 8 59 10
81 6 64 12 127 19 170 27 197 28 782 0 1040 -12 110 -21 189 -29 250 -3 22 -8
56 -11 75 -2 19 -7 46 -10 60 -3 14 -8 43 -11 65 -3 22 -10 58 -15 80 -5 22
-12 54 -14 70 -3 17 -7 41 -10 55 -4 14 -8 36 -11 50 -3 14 -7 33 -10 43 -6
20 9 23 23 5 9 -12 44 -175 58 -268 3 -19 8 -42 10 -50 2 -8 7 -40 10 -70 3
-30 10 -80 14 -110 5 -30 10 -62 10 -70 0 -8 3 -31 5 -50 3 -19 7 -69 10 -110
3 -41 6 -75 7 -75 5 0 13 -250 13 -455 1 -266 -6 -418 -27 -612 -1 -9 3 -18 8
-20 6 -2 10 8 11 22 1 15 4 55 8 90 26 226 26 934 1 1044 -3 12 -7 48 -9 81
-3 33 -7 80 -11 105 -3 25 -8 59 -10 75 -2 17 -4 30 -5 30 -1 0 -3 18 -5 40
-2 22 -6 54 -10 70 -3 17 -8 46 -10 65 -2 19 -7 44 -9 56 -3 12 -8 39 -12 60
-3 21 -8 42 -11 46 -2 4 -7 28 -10 53 -5 44 -5 45 18 36 130 -49 219 -84 244
-96 17 -7 59 -25 95 -40 119 -50 351 -165 347 -173 -3 -4 -8 -50 -11 -102 -4
-52 -9 -108 -12 -125 -3 -16 -7 -46 -9 -65 -5 -51 -15 -121 -21 -155 -3 -16
-7 -41 -9 -55 -1 -14 -5 -38 -8 -55 -4 -16 -9 -46 -12 -65 -17 -105 -80 -393
-89 -409 -3 -4 -7 -21 -10 -37 -3 -16 -22 -83 -41 -149 -20 -66 -38 -127 -40
-135 -2 -8 -22 -67 -45 -130 -23 -63 -43 -119 -44 -125 -2 -5 -9 -23 -16 -40
-7 -16 -14 -32 -14 -35 -4 -16 -72 -178 -82 -195 -7 -11 -13 -22 -13 -25 0 -7
-63 -144 -95 -208 -15 -29 -22 -52 -17 -52 5 0 14 12 20 27 6 16 20 43 32 62
39 64 129 243 129 256 0 7 7 18 15 25 8 7 13 15 11 19 -2 3 2 17 10 31 l14 25
-6 -30 c-4 -16 -11 -38 -16 -47 -5 -10 -6 -18 -4 -18 3 0 1 -11 -4 -25 -5 -14
-12 -37 -14 -50 -5 -26 -17 -65 -48 -153 -19 -57 -9 -62 18 -9 26 50 86 138
91 133 3 -2 -1 -14 -7 -26 -6 -12 -13 -30 -15 -40 -9 -47 -118 -271 -216 -446
-17 -30 -29 -54 -26 -54 6 0 143 172 145 183 1 4 10 16 20 26 9 11 22 26 28
33 21 26 121 184 154 243 19 33 36 62 39 65 3 3 19 30 34 60 16 30 51 100 80
155 28 55 51 102 52 105 0 3 10 25 22 50 12 25 33 74 48 110 14 36 34 83 44
105 15 34 31 74 36 95 1 3 7 19 14 35 7 17 14 35 15 40 1 6 4 15 8 20 7 12 98
293 101 315 2 8 6 21 10 28 5 6 6 12 2 12 -3 0 -1 8 4 18 6 11 12 30 15 43 3
13 16 69 31 124 21 85 44 184 61 270 2 11 7 36 11 55 4 19 8 40 8 45 1 13 23
8 41 -9 17 -17 11 -198 -11 -346 -3 -19 -8 -55 -10 -80 -3 -25 -8 -56 -11 -70
-3 -14 -7 -36 -9 -50 -6 -45 -34 -173 -60 -275 -15 -55 -27 -104 -29 -110 -1
-5 -17 -57 -36 -115 -18 -58 -34 -109 -36 -115 -1 -5 -12 -37 -25 -70 -13 -33
-24 -62 -24 -65 -3 -9 -17 -45 -28 -70 -6 -14 -11 -27 -11 -30 -7 -44 -229
-501 -281 -577 -14 -21 -25 -43 -25 -50 0 -7 -3 -13 -8 -13 -4 0 -16 -17 -27
-37 -11 -21 -22 -40 -25 -43 -3 -3 -18 -25 -35 -50 -46 -70 -105 -150 -155
-210 l-45 -54 35 24 c51 35 185 173 259 265 65 80 201 283 259 385 80 138 292
586 292 614 0 3 5 17 12 33 6 15 13 37 15 47 2 11 7 24 12 30 6 8 48 124 56
156 1 3 4 12 8 20 31 81 148 469 163 540 19 96 24 102 52 62 15 -20 18 -32 11
-45 -6 -9 -8 -17 -5 -17 3 0 1 -12 -5 -27 -6 -16 -13 -39 -15 -52 -6 -30 -130
-404 -148 -446 -7 -16 -28 -68 -46 -115 -17 -47 -38 -98 -46 -115 -7 -16 -49
-109 -93 -206 -44 -97 -119 -248 -166 -334 -47 -87 -83 -160 -80 -163 8 -8 29
24 72 108 21 41 41 77 44 80 10 9 209 422 209 435 0 2 13 32 28 67 25 55 65
154 67 168 1 3 9 22 18 43 17 39 135 385 142 415 2 10 13 47 24 84 10 36 17
69 13 72 -3 3 0 6 6 6 7 0 25 -19 42 -42 16 -24 34 -48 40 -55 12 -15 81 -180
86 -207 2 -12 10 -53 18 -93 7 -40 12 -114 10 -170 -2 -92 -5 -121 -20 -183
-3 -14 -8 -34 -10 -44 -4 -21 -22 -83 -31 -106 -4 -8 -7 -17 -8 -20 -9 -34
-128 -257 -157 -295 -4 -5 -47 -61 -95 -123 -82 -108 -123 -155 -212 -247 -68
-70 -154 -150 -211 -196 -30 -24 -60 -49 -68 -56 -7 -7 -44 -33 -82 -59 -39
-26 -70 -48 -70 -50 0 -9 115 50 130 66 15 16 40 31 40 24 0 -8 -107 -120
-155 -162 -47 -42 -117 -94 -195 -146 -46 -31 -77 -56 -70 -56 25 0 373 182
425 222 6 5 52 35 103 68 83 54 268 185 282 200 3 3 27 23 55 45 70 56 209
195 289 290 131 155 295 429 351 585 29 82 49 145 47 152 -1 4 2 18 7 31 5 13
12 41 15 63 4 21 8 46 11 54 25 95 26 577 1 619 -2 3 -7 24 -10 46 -4 22 -15
68 -25 102 -11 35 -15 63 -10 63 5 0 9 -7 9 -15 0 -8 5 -15 10 -15 6 0 10 -6
10 -14 0 -8 8 -21 18 -28 9 -7 24 -22 32 -32 13 -18 13 -19 0 -12 -10 5 -10 3
2 -6 18 -16 80 -137 70 -139 -4 -1 -10 -1 -14 0 -4 0 -5 -6 -1 -15 4 -11 8
-12 13 -4 6 10 36 -63 46 -113 2 -10 6 -26 8 -35 6 -18 10 -44 23 -147 15
-112 8 -356 -12 -445 -3 -14 -7 -38 -10 -55 -10 -66 -70 -256 -112 -355 -34
-81 -136 -285 -144 -288 -5 -2 -9 -8 -9 -12 0 -8 -74 -131 -93 -155 -4 -5 -35
-48 -69 -95 -140 -194 -379 -447 -568 -600 -30 -25 -62 -52 -70 -60 -29 -29
-99 -80 -109 -80 -6 0 -11 -4 -11 -8 0 -8 -66 -59 -125 -96 -16 -10 -32 -22
-35 -25 -3 -4 -34 -26 -70 -49 -36 -23 -76 -50 -89 -60 -13 -9 -28 -16 -33
-14 -4 1 -8 -2 -8 -8 0 -5 2 -10 6 -10 19 0 330 155 424 212 98 59 96 58 220
137 117 76 270 187 326 238 17 15 68 62 114 103 79 72 234 242 295 325 17 22
35 45 40 51 6 6 28 37 50 70 22 32 43 60 48 62 4 2 7 8 7 14 0 5 8 22 19 36
57 81 193 365 217 452 2 8 17 62 34 120 17 58 32 119 35 135 2 17 7 44 10 60
4 17 8 44 9 61 2 17 5 35 8 40 8 12 3 433 -5 465 -4 14 -9 45 -11 70 -3 24 -5
44 -6 44 -1 0 -3 9 -5 20 -5 26 -18 88 -20 95 -1 3 -5 22 -9 43 -5 20 -12 40
-17 43 -5 3 -7 9 -5 13 3 4 -8 45 -24 92 -37 106 -37 121 -1 44 55 -116 105
-284 126 -425 3 -19 9 -59 14 -89 13 -80 10 -382 -5 -464 -6 -40 -10 -75 -7
-80 2 -4 1 -12 -3 -19 -8 -13 -15 -47 -17 -85 0 -13 -5 -23 -11 -23 -5 0 -7
-3 -4 -6 11 -10 -63 -256 -108 -359 -10 -22 -18 -42 -19 -45 -3 -23 -171 -329
-186 -340 -3 -3 -14 -20 -23 -38 -9 -17 -21 -32 -26 -32 -6 0 -10 -6 -10 -12
0 -7 -9 -24 -20 -38 -11 -14 -52 -68 -91 -120 -40 -52 -81 -105 -93 -116 -12
-12 -37 -41 -56 -65 -41 -52 -310 -323 -390 -393 l-55 -48 50 27 c50 27 179
120 223 159 135 121 303 310 393 441 19 27 40 56 47 63 6 7 12 17 12 22 0 5 6
15 13 22 37 37 208 353 267 493 11 26 51 137 55 150 1 6 5 18 9 27 4 9 9 25
11 35 2 10 4 18 5 18 1 0 3 7 5 15 2 8 11 40 20 70 8 30 17 69 20 85 3 17 8
41 10 55 27 133 38 406 22 560 -4 41 -8 82 -9 90 0 8 -5 35 -10 60 -5 25 -11
71 -13 102 -2 31 -6 65 -9 75 -2 10 -7 36 -11 57 -6 44 -15 60 -16 30 0 -18
-1 -18 -9 1 -5 11 -9 27 -9 35 -1 13 0 13 9 0 7 -12 9 -10 7 8 -1 14 -6 21
-14 18 -7 -3 -13 -2 -14 2 -4 33 -12 59 -43 141 -20 52 -41 100 -47 108 -6 7
-9 13 -6 13 3 0 -8 27 -24 60 -16 33 -29 65 -29 70 0 6 -3 10 -8 10 -4 0 -15
19 -25 42 -26 59 -123 211 -208 325 -70 94 -407 443 -428 443 -6 0 -10 44 -11
108 -2 186 -7 333 -15 452 -5 63 -9 126 -10 140 -2 33 -16 187 -21 225 -7 54
-15 119 -19 160 -2 22 -5 40 -5 40 -3 0 -17 105 -25 174 -2 19 -7 58 -11 85
-4 28 -8 62 -9 76 -4 32 -14 97 -21 134 -4 18 -9 24 -14 16 -5 -8 -9 -8 -13 4
-4 10 -1 16 8 16 15 0 13 32 -6 90 -6 18 -7 12 -4 -20 l4 -45 -15 50 c-8 28
-19 64 -25 82 -5 18 -12 40 -13 50 -19 96 -141 484 -173 545 -7 15 -13 29 -13
30 2 6 -12 44 -37 103 -14 33 -29 69 -34 80 -4 11 -45 96 -90 190 -73 150
-100 200 -172 320 -9 17 -20 38 -23 48 -4 9 -10 17 -15 17 -5 0 -9 5 -9 10 0
9 -35 65 -50 80 -3 3 -9 12 -15 21 -31 49 -70 105 -82 117 -7 7 -13 17 -13 20
0 4 -10 18 -23 32 -12 14 -38 45 -57 70 -19 25 -65 80 -103 123 -39 43 -68 80
-65 82 6 6 200 -195 243 -250 17 -22 38 -47 48 -57 9 -10 17 -21 17 -24 0 -5
52 -73 83 -108 9 -11 17 -23 17 -27 0 -4 6 -14 14 -21 7 -8 22 -29 32 -47 11
-19 24 -41 29 -50 6 -9 30 -49 54 -89 24 -40 46 -71 48 -68 8 7 -193 330 -216
346 -4 3 -18 21 -31 40 -13 19 -32 44 -41 55 -10 11 -48 56 -86 100 -139 163
-306 317 -498 460 -44 33 -82 62 -85 65 -26 26 -100 66 -110 60 -9 -6 -7 -10
9 -15 11 -3 21 -10 21 -15 0 -5 9 -12 20 -15 11 -3 26 -12 32 -18 7 -7 40 -32
73 -57 157 -118 376 -341 510 -520 31 -41 62 -83 70 -92 7 -9 18 -25 24 -36 6
-11 17 -26 23 -34 82 -87 408 -693 442 -823 2 -5 8 -21 13 -35 42 -101 63
-155 63 -163 0 -5 6 -23 14 -40 12 -25 43 -122 51 -157 1 -3 12 -39 25 -80 13
-41 23 -78 22 -82 -1 -4 5 -23 13 -42 9 -20 13 -36 11 -36 -3 0 1 -18 9 -40 8
-22 12 -40 8 -40 -3 0 0 -7 7 -15 7 -8 10 -15 7 -15 -3 0 -1 -17 4 -37 5 -21
12 -49 15 -63 3 -14 7 -32 9 -40 2 -8 7 -31 10 -50 3 -19 8 -42 11 -51 2 -9 7
-34 10 -55 2 -21 9 -54 13 -74 5 -19 12 -54 15 -77 3 -22 7 -52 10 -65 20 -89
33 -259 39 -480 1 -58 5 -110 9 -114 4 -3 6 10 4 30 -1 20 1 39 4 41 4 2 7 -1
7 -8 0 -7 4 -57 7 -112 16 -226 18 -448 4 -456 -10 -7 -10 -9 0 -9 8 0 12 -16
12 -45 0 -48 -4 -53 -26 -31 -18 18 -19 60 -1 50 9 -6 9 -5 0 7 -8 10 -10 73
-8 209 1 107 -1 182 -5 165 l-8 -30 -1 33 c0 17 4 32 9 32 6 0 9 21 8 48 l-1
47 -7 -45 c-8 -49 -11 -42 -15 35 -3 58 -14 180 -15 180 -1 0 -3 17 -5 39 -2
21 -6 59 -10 85 -4 25 -9 60 -10 76 -4 34 -14 98 -20 135 -3 14 -7 45 -10 69
-3 24 -7 47 -9 50 -2 3 -7 31 -11 61 -4 30 -9 58 -11 62 -3 4 -7 24 -10 45 -2
21 -9 53 -14 73 -5 19 -12 51 -15 70 -9 45 -13 64 -15 68 -3 3 -4 6 -14 57 -4
22 -8 41 -7 42 0 2 -6 21 -14 43 -8 22 -14 42 -15 45 0 3 0 6 -1 8 0 1 -2 10
-4 20 -13 70 -148 478 -187 567 -6 14 -12 30 -14 35 -3 13 -55 137 -84 200
-91 198 -257 506 -281 521 -5 3 -7 10 -4 15 4 5 2 9 -3 9 -5 0 -14 11 -20 25
-7 14 -16 31 -22 38 -5 7 -27 35 -47 64 -99 137 -128 177 -138 187 -5 6 -28
33 -50 61 -66 82 -231 252 -327 337 -56 50 -209 168 -218 168 -3 0 -11 -19
-18 -41 -37 -120 -148 -223 -366 -340 -155 -84 -306 -217 -444 -390 -10 -14
-2 -23 66 -67 128 -83 229 -168 383 -322 130 -130 220 -232 287 -324 12 -17
29 -39 38 -49 69 -82 283 -434 356 -587 49 -102 120 -260 123 -274 1 -6 7 -22
12 -36 6 -14 19 -45 28 -70 9 -25 21 -54 25 -65 8 -19 23 -65 78 -235 24 -74
60 -210 68 -255 3 -16 10 -48 16 -70 6 -22 12 -51 13 -65 1 -14 6 -40 10 -58
l7 -34 -29 15 c-43 23 -103 47 -103 41 0 -2 31 -18 69 -36 39 -17 68 -34 66
-38 -2 -3 1 -26 6 -49 5 -24 8 -45 6 -47 -2 -2 -78 31 -168 74 -249 120 -283
136 -294 138 -5 1 -50 20 -100 41 -82 36 -233 96 -245 98 -3 0 -15 6 -27 13
-13 7 -23 10 -23 7 0 -3 -13 1 -30 10 -16 9 -30 13 -30 9 0 -3 -10 0 -22 8
-13 8 -43 20 -67 27 -25 7 -56 18 -70 24 -14 5 -32 11 -40 13 -21 4 -33 20
-52 69 -11 29 -13 45 -6 45 6 0 4 6 -5 13 -8 6 -34 64 -57 127 -40 107 -70
188 -91 235 -4 11 -25 63 -44 115 -20 52 -43 109 -51 125 -7 17 -21 48 -30 70
-9 22 -23 54 -30 70 -20 42 -54 124 -56 133 -1 4 -9 23 -19 42 -10 19 -32 72
-50 118 -18 45 -37 82 -41 82 -5 0 -9 11 -9 24 0 13 -6 29 -14 36 -8 6 -12 18
-9 26 3 7 -2 17 -12 20 -9 4 -14 13 -11 21 3 7 -4 23 -15 34 -11 11 -17 25
-13 31 4 6 3 8 -2 5 -6 -3 -40 54 -77 126 -37 73 -87 168 -111 212 -25 44 -54
98 -66 120 -54 99 -86 155 -136 237 -30 49 -54 93 -54 98 0 6 -4 10 -8 10 -5
0 -19 20 -32 45 -13 25 -27 45 -32 45 -4 0 -8 4 -8 10 0 9 -68 122 -88 146 -5
5 -15 21 -22 35 -7 13 -16 26 -20 29 -4 3 -19 23 -33 45 -14 22 -45 67 -69
101 -24 34 -59 83 -77 110 -50 71 -174 228 -183 232 -5 2 -8 10 -8 17 0 8 -6
18 -13 22 -7 4 -31 31 -52 58 -22 28 -48 57 -57 66 -10 9 -18 19 -18 23 0 3
-8 14 -17 24 -10 10 -47 51 -83 92 -36 40 -96 105 -133 144 -38 39 -72 74 -75
79 -23 25 -194 185 -229 214 -24 20 -40 40 -36 46 3 5 2 7 -3 4 -12 -7 -39 8
-39 22 0 6 -25 26 -55 45 -30 19 -59 39 -65 43 -43 36 -75 51 -75 36z m3476
-1335 c29 -31 29 -31 2 -12 -15 10 -29 25 -32 32 -8 18 -2 15 30 -20z m-1482
-1254 c3 -8 2 -12 -4 -9 -6 3 -10 10 -10 16 0 14 7 11 14 -7z m490 -1260 c9
-3 13 -10 10 -15 -3 -5 0 -9 7 -9 6 0 9 -8 6 -20 -3 -11 -2 -18 3 -15 8 5 20
-17 20 -35 0 -11 -40 -4 -53 9 -5 5 -10 20 -10 34 -1 14 -5 23 -8 21 -9 -5
-19 22 -12 30 8 8 17 8 37 0z m-1754 -1210 c14 -3 72 -14 130 -25 58 -12 120
-23 138 -25 18 -1 36 -5 40 -8 4 -2 28 -7 52 -11 25 -3 65 -11 90 -17 25 -5
56 -12 70 -14 14 -3 32 -7 40 -9 8 -2 31 -7 50 -10 19 -3 42 -8 51 -11 9 -2
33 -7 54 -9 20 -3 40 -7 44 -10 6 -3 95 -23 184 -41 10 -2 26 -5 35 -8 9 -3
28 -7 42 -10 14 -2 45 -9 70 -15 25 -7 53 -14 64 -16 24 -6 25 -6 32 -43 6
-31 6 -31 -25 -22 -17 5 -35 9 -39 10 -4 0 -16 3 -27 5 -11 3 -31 7 -45 9 -14
2 -47 10 -75 16 -27 6 -61 14 -75 16 -14 3 -32 7 -39 10 -8 3 -35 7 -59 10
-24 3 -55 9 -68 14 -13 5 -24 8 -24 5 0 -2 -15 1 -32 6 -18 5 -53 12 -77 15
-25 3 -47 7 -51 9 -3 2 -50 11 -105 20 -100 17 -118 20 -165 30 -14 2 -45 7
-70 10 -25 4 -64 11 -88 16 -24 5 -48 7 -53 4 -5 -4 -9 -2 -9 4 0 5 -8 8 -17
6 -10 -1 -25 5 -34 15 -9 9 -27 25 -40 36 -13 11 -31 28 -39 38 -14 18 -13 19
15 12 17 -5 41 -10 55 -12z m91 -171 c13 -16 12 -17 -3 -4 -17 13 -22 21 -14
21 2 0 10 -8 17 -17z m1735 -247 c12 -12 28 -66 19 -66 -2 0 -22 7 -43 15 -31
13 -38 21 -40 45 -2 28 -1 30 25 24 16 -4 33 -12 39 -18z m534 -171 c17 -9 32
-15 35 -15 3 0 22 -7 43 -16 20 -8 84 -35 142 -59 214 -88 427 -191 457 -221
12 -11 19 -44 9 -44 -2 0 -69 32 -150 70 -80 39 -148 70 -152 70 -3 0 -26 10
-52 21 -69 32 -131 58 -140 60 -4 0 -23 8 -42 16 -19 8 -66 26 -105 40 -80 29
-80 29 -89 66 -7 31 2 34 44 12z"/>
<path d="M3380 9176 c0 -2 8 -10 18 -17 15 -13 16 -12 3 4 -13 16 -21 21 -21
13z"/>
<path d="M3475 9090 c10 -11 20 -20 23 -20 3 0 -3 9 -13 20 -10 11 -20 20 -23
20 -3 0 3 -9 13 -20z"/>
<path d="M3900 8666 c0 -2 8 -10 18 -17 15 -13 16 -12 3 4 -13 16 -21 21 -21
13z"/>
<path d="M3990 8556 c0 -2 8 -10 18 -17 15 -13 16 -12 3 4 -13 16 -21 21 -21
13z"/>
<path d="M4216 8257 c3 -10 9 -15 12 -12 3 3 0 11 -7 18 -10 9 -11 8 -5 -6z"/>
<path d="M4290 8153 c0 -6 8 -17 18 -24 16 -13 16 -13 2 6 -8 11 -16 22 -17
24 -2 2 -3 0 -3 -6z"/>
<path d="M4330 8090 c6 -11 13 -20 16 -20 2 0 0 9 -6 20 -6 11 -13 20 -16 20
-2 0 0 -9 6 -20z"/>
<path d="M4450 7896 c0 -2 8 -10 18 -17 15 -13 16 -12 3 4 -13 16 -21 21 -21
13z"/>
<path d="M4517 7789 c4 -13 8 -18 11 -10 2 7 -1 18 -6 23 -8 8 -9 4 -5 -13z"/>
<path d="M4571 7704 c0 -11 3 -14 6 -6 3 7 2 16 -1 19 -3 4 -6 -2 -5 -13z"/>
<path d="M4600 7650 c6 -11 13 -20 16 -20 2 0 0 9 -6 20 -6 11 -13 20 -16 20
-2 0 0 -9 6 -20z"/>
<path d="M4666 7527 c3 -10 9 -15 12 -12 3 3 0 11 -7 18 -10 9 -11 8 -5 -6z"/>
<path d="M7111 7285 c0 -5 6 -19 14 -29 8 -11 15 -15 15 -10 0 6 -7 19 -15 30
-8 10 -14 15 -14 9z"/>
<path d="M4812 7250 c7 -10 14 -18 15 -16 6 6 -9 36 -18 36 -5 0 -4 -9 3 -20z"/>
<path d="M7183 7140 c23 -49 45 -89 49 -90 4 0 -12 40 -35 90 -23 49 -45 89
-49 90 -4 0 12 -40 35 -90z"/>
<path d="M4845 7180 c3 -5 8 -10 11 -10 2 0 4 5 4 10 0 6 -5 10 -11 10 -5 0
-7 -4 -4 -10z"/>
<path d="M4920 7035 c0 -5 5 -17 10 -25 5 -8 10 -10 10 -5 0 6 -5 17 -10 25
-5 8 -10 11 -10 5z"/>
<path d="M7230 7036 c0 -7 42 -76 46 -76 2 0 -1 10 -6 23 -6 12 -13 30 -16 40
-6 15 -24 25 -24 13z"/>
<path d="M7286 6913 c9 -21 20 -49 25 -62 5 -13 11 -22 14 -20 6 7 -39 119
-48 119 -4 0 0 -17 9 -37z"/>
<path d="M4970 6921 c0 -6 4 -13 10 -16 6 -3 7 1 4 9 -7 18 -14 21 -14 7z"/>
<path d="M7331 6815 c-1 -5 19 -70 44 -144 25 -73 45 -139 45 -147 0 -7 4 -15
9 -18 12 -8 5 33 -13 77 -9 20 -14 37 -11 37 3 0 1 9 -5 21 -6 11 -13 28 -15
37 -5 26 -54 148 -54 137z"/>
<path d="M7440 6465 c5 -14 12 -36 15 -48 2 -12 9 -40 15 -62 13 -48 17 -64
31 -132 6 -29 14 -53 19 -53 6 0 6 10 1 23 -5 13 -12 37 -15 53 -7 43 -13 67
-32 137 -9 34 -19 72 -21 85 -3 12 -9 22 -14 22 -5 0 -4 -11 1 -25z"/>
<path d="M7515 6151 c-3 -5 -1 -12 5 -16 5 -3 10 1 10 9 0 18 -6 21 -15 7z"/>
<path d="M7528 6095 c2 -14 8 -25 12 -25 4 0 5 11 2 25 -2 14 -8 25 -12 25 -4
0 -5 -11 -2 -25z"/>
<path d="M1433 5661 c43 -17 88 -33 100 -37 20 -6 20 -6 4 10 -9 10 -21 15
-26 12 -5 -3 -11 0 -14 8 -3 7 -23 16 -44 19 -21 4 -51 9 -68 12 -16 3 5 -8
48 -24z"/>
<path d="M1560 5628 c0 -10 4 -18 9 -18 5 0 25 -7 45 -15 20 -8 37 -15 38 -15
2 1 29 -11 62 -25 32 -14 61 -24 64 -21 4 5 -8 11 -75 36 -18 7 -30 17 -26 23
3 6 1 7 -5 3 -18 -11 -64 5 -58 20 3 8 -2 11 -17 8 -11 -2 -25 2 -29 9 -5 8
-8 7 -8 -5z"/>
<path d="M5580 5540 c8 -5 20 -10 25 -10 6 0 3 5 -5 10 -8 5 -19 10 -25 10 -5
0 -3 -5 5 -10z"/>
<path d="M5625 5530 c3 -4 14 -10 25 -13 11 -3 18 -2 15 3 -3 4 -14 10 -25 13
-11 3 -18 2 -15 -3z"/>
<path d="M1820 5512 c19 -10 55 -26 80 -36 43 -17 154 -69 233 -108 20 -11 37
-16 37 -11 0 4 -17 16 -38 25 -20 9 -75 34 -122 56 -152 70 -202 92 -214 92
-6 -1 5 -9 24 -18z"/>
<path d="M5737 5489 c7 -7 15 -10 18 -7 3 3 -2 9 -12 12 -14 6 -15 5 -6 -5z"/>
<path d="M5784 5476 c11 -9 24 -16 30 -16 12 0 7 5 -24 19 -24 11 -24 11 -6
-3z"/>
<path d="M5660 5476 c0 -2 7 -7 16 -10 8 -3 12 -2 9 4 -6 10 -25 14 -25 6z"/>
<path d="M2060 5456 c0 -2 8 -10 18 -17 15 -13 16 -12 3 4 -13 16 -21 21 -21
13z"/>
<path d="M5860 5447 c3 -3 25 -12 50 -21 38 -12 42 -13 26 0 -11 7 -25 14 -32
14 -7 0 -21 3 -31 7 -10 3 -16 4 -13 0z"/>
<path d="M6009 5389 c24 -11 46 -18 48 -15 4 4 -73 36 -85 35 -4 0 13 -9 37
-20z"/>
<path d="M2217 5379 c7 -7 15 -10 18 -7 3 3 -2 9 -12 12 -14 6 -15 5 -6 -5z"/>
<path d="M2266 5355 c10 -8 23 -15 28 -15 6 0 1 7 -10 15 -10 8 -23 15 -28 15
-6 0 -1 -7 10 -15z"/>
<path d="M6080 5360 c8 -5 20 -10 25 -10 6 0 3 5 -5 10 -8 5 -19 10 -25 10 -5
0 -3 -5 5 -10z"/>
<path d="M2245 5315 c38 -19 71 -32 74 -30 4 5 -126 65 -137 64 -4 0 24 -15
63 -34z"/>
<path d="M6130 5343 c8 -3 24 -10 35 -15 20 -9 20 -9 1 6 -11 9 -27 16 -35 15
-14 0 -14 -1 -1 -6z"/>
<path d="M2317 5329 c7 -7 15 -10 18 -7 3 3 -2 9 -12 12 -14 6 -15 5 -6 -5z"/>
<path d="M6204 5316 c11 -9 24 -16 30 -16 12 0 7 5 -24 19 -24 11 -24 11 -6
-3z"/>
<path d="M2357 5309 c7 -7 15 -10 18 -7 3 3 -2 9 -12 12 -14 6 -15 5 -6 -5z"/>
<path d="M6270 5285 c14 -8 30 -14 35 -14 6 0 -1 6 -15 14 -14 8 -29 14 -35
14 -5 0 1 -6 15 -14z"/>
<path d="M2345 5264 c11 -8 54 -32 96 -54 42 -21 129 -70 194 -109 65 -39 120
-71 122 -71 3 0 20 -12 39 -26 19 -15 34 -22 34 -17 0 12 -197 132 -365 223
-44 24 -89 49 -100 57 -27 18 -45 16 -20 -3z"/>
<path d="M6325 5260 c3 -5 14 -10 23 -10 15 0 15 2 2 10 -20 13 -33 13 -25 0z"/>
<path d="M2461 5257 c2 -1 13 -9 24 -17 19 -14 19 -14 6 3 -7 9 -18 17 -24 17
-6 0 -8 -1 -6 -3z"/>
<path d="M6382 5237 c7 -7 26 -19 42 -26 26 -11 28 -10 16 3 -7 9 -20 16 -29
16 -9 0 -22 4 -29 10 -7 6 -7 5 0 -3z"/>
<path d="M2520 5226 c0 -2 8 -10 18 -17 15 -13 16 -12 3 4 -13 16 -21 21 -21
13z"/>
<path d="M6470 5201 c0 -9 30 -24 36 -18 2 1 -6 8 -16 15 -11 7 -20 8 -20 3z"/>
<path d="M6527 5169 c7 -7 15 -10 18 -7 3 3 -2 9 -12 12 -14 6 -15 5 -6 -5z"/>
<path d="M2650 5146 c0 -2 7 -7 16 -10 8 -3 12 -2 9 4 -6 10 -25 14 -25 6z"/>
<path d="M2782 5064 c10 -10 20 -16 22 -13 3 3 -5 11 -17 18 -21 13 -21 12 -5
-5z"/>
<path d="M2837 5029 c12 -12 24 -21 27 -18 2 2 -8 13 -22 23 l-27 19 22 -24z"/>
<path d="M2890 4996 c0 -2 8 -10 18 -17 15 -13 16 -12 3 4 -13 16 -21 21 -21
13z"/>
<path d="M2980 4936 c0 -2 8 -10 18 -17 15 -13 16 -12 3 4 -13 16 -21 21 -21
13z"/>
<path d="M3035 4890 c3 -5 8 -10 11 -10 2 0 4 5 4 10 0 6 -5 10 -11 10 -5 0
-7 -4 -4 -10z"/>
<path d="M3180 4786 c0 -2 8 -10 18 -17 15 -13 16 -12 3 4 -13 16 -21 21 -21
13z"/>
<path d="M7740 4384 c8 -8 23 -20 34 -26 14 -6 11 -1 -8 16 -32 29 -45 34 -26
10z"/>
<path d="M7849 4257 c25 -27 43 -39 22 -14 -6 8 -7 18 -3 23 4 5 3 6 -2 2 -5
-4 -16 -2 -25 4 -9 7 -5 0 8 -15z"/>
<path d="M7886 4245 c4 -8 11 -15 16 -15 6 0 5 6 -2 15 -7 8 -14 15 -16 15 -2
0 -1 -7 2 -15z"/>
<path d="M7947 4183 c-3 -5 22 -38 55 -74 60 -62 200 -234 209 -254 7 -17 91
-145 95 -145 9 0 -2 25 -18 44 -10 11 -18 28 -18 38 0 12 -4 16 -11 12 -7 -4
-10 -1 -7 6 2 7 -4 22 -14 34 -17 20 -79 96 -183 226 -78 96 -103 122 -108
113z"/>
<path d="M8327 3703 c4 -11 3 -14 -5 -9 -7 4 -12 2 -12 -3 0 -6 3 -11 8 -12 4
0 15 -2 24 -4 16 -3 16 -1 1 21 -18 28 -25 31 -16 7z"/>
<path d="M8357 3611 c15 -28 29 -48 31 -46 4 4 -48 95 -55 95 -2 0 8 -22 24
-49z"/>
<path d="M8406 3517 c3 -10 9 -15 12 -12 3 3 0 11 -7 18 -10 9 -11 8 -5 -6z"/>
<path d="M8433 3451 c12 -22 23 -38 25 -37 5 6 -31 76 -39 76 -4 0 2 -18 14
-39z"/>
<path d="M8476 3447 c3 -10 9 -15 12 -12 3 3 0 11 -7 18 -10 9 -11 8 -5 -6z"/>
<path d="M8461 3390 c0 -14 28 -72 29 -59 0 4 -7 22 -15 40 -8 19 -14 27 -14
19z"/>
<path d="M8521 3222 c6 -18 15 -35 20 -38 5 -3 4 7 -3 23 -17 41 -30 53 -17
15z"/>
<path d="M4620 3155 c0 -18 19 -40 26 -32 4 4 0 15 -9 24 -9 10 -17 13 -17 8z"/>
<path d="M8610 3111 c0 -6 4 -13 10 -16 6 -3 7 1 4 9 -7 18 -14 21 -14 7z"/>
<path d="M4650 3101 c0 -5 5 -13 10 -16 6 -3 10 -2 10 4 0 5 -4 13 -10 16 -5
3 -10 2 -10 -4z"/>
<path d="M4670 3064 c0 -3 15 -38 34 -77 64 -137 85 -184 106 -238 11 -30 25
-61 31 -69 9 -12 9 -11 4 5 -4 11 -14 38 -22 60 -19 51 -144 325 -149 325 -2
0 -4 -3 -4 -6z"/>
<path d="M2133 3020 c-86 -24 -122 -42 -183 -91 -67 -53 -153 -79 -262 -80
-43 0 -78 -4 -78 -9 0 -8 165 -223 199 -260 9 -10 39 -44 66 -76 92 -108 325
-345 442 -450 42 -38 85 -77 95 -86 10 -10 21 -18 26 -18 4 0 18 -12 32 -27
14 -14 41 -36 62 -49 20 -13 45 -32 55 -42 19 -19 172 -128 208 -148 11 -6 49
-29 85 -52 79 -50 406 -244 438 -261 13 -7 22 -15 19 -17 -2 -2 -52 23 -112
56 -59 33 -109 60 -111 60 -2 0 -26 14 -54 31 -27 17 -54 28 -59 25 -5 -3 -11
0 -14 7 -3 8 -38 33 -79 57 -40 24 -86 53 -103 65 -31 23 -78 44 -60 27 31
-29 292 -196 309 -198 12 -1 23 -3 26 -3 3 -1 -2 -6 -10 -12 -12 -9 -12 -10 3
-5 25 8 43 -4 26 -16 -10 -7 -9 -8 6 -4 25 7 71 -16 67 -33 -1 -7 2 -10 8 -6
6 3 111 -44 235 -105 123 -62 226 -112 229 -111 3 0 36 -16 73 -36 146 -77
470 -235 563 -273 30 -13 60 -28 65 -33 7 -7 5 -7 -4 -2 -9 5 -12 4 -8 -2 4
-6 17 -8 31 -6 16 3 28 -2 39 -17 9 -13 20 -19 27 -15 8 5 1 17 -22 35 -18 15
-46 40 -62 55 -29 27 -29 27 -5 20 13 -4 44 -16 68 -26 57 -25 59 -24 27 8
-29 29 -28 40 3 24 22 -12 170 -68 215 -82 54 -16 14 8 -164 99 -233 119 -314
162 -394 211 -36 23 -68 41 -71 41 -8 0 -170 105 -173 112 -2 5 -8 8 -13 8 -8
0 -93 53 -124 78 -5 4 -41 30 -80 57 -38 27 -72 52 -75 55 -3 4 -30 25 -60 48
-64 48 -132 107 -110 96 8 -4 40 -24 70 -44 30 -20 78 -50 105 -65 141 -79
196 -109 260 -139 222 -106 286 -136 290 -136 2 0 30 -12 62 -26 86 -39 137
-60 163 -69 3 -1 19 -7 35 -14 17 -6 41 -16 55 -21 14 -5 39 -15 55 -21 17 -7
35 -13 40 -15 6 -1 51 -16 100 -33 163 -57 176 -60 171 -52 -3 4 -27 16 -53
26 -45 16 -182 84 -193 95 -5 5 -67 40 -125 69 -16 9 -31 19 -33 24 -2 4 -8 7
-12 7 -5 0 -33 14 -62 31 -29 18 -75 44 -103 59 -80 44 -320 184 -325 190 -3
3 -16 11 -30 19 -14 8 -34 19 -44 25 -11 6 -25 15 -30 19 -6 4 -46 30 -88 57
-43 28 -78 52 -78 55 0 5 44 -18 200 -107 162 -91 248 -138 257 -138 14 0 -13
19 -72 51 -33 18 -91 52 -128 76 -37 23 -70 43 -73 43 -3 0 -32 18 -65 40 -33
22 -62 40 -65 40 -5 0 -253 155 -279 175 -11 9 -72 55 -135 102 -63 48 -120
92 -126 98 -6 5 -40 35 -75 65 -69 60 -198 181 -232 219 -12 13 -49 51 -82 85
-33 34 -85 90 -115 125 -30 35 -60 69 -65 75 -6 6 -26 31 -45 56 -19 25 -37
47 -40 50 -18 17 -120 161 -120 170 0 5 -4 10 -8 10 -5 0 -17 16 -28 35 -10
19 -21 35 -25 35 -3 0 -11 11 -17 24 -9 21 -18 25 -51 23 -23 -1 -67 -9 -98
-17z"/>
<path d="M8140 2941 c0 -6 4 -13 10 -16 6 -3 7 1 4 9 -7 18 -14 21 -14 7z"/>
<path d="M1560 2834 c0 -19 157 -254 190 -284 3 -3 23 -27 45 -55 21 -27 52
-62 67 -78 15 -15 28 -29 28 -31 0 -4 167 -170 232 -232 18 -17 62 -54 98 -84
36 -29 67 -56 70 -59 3 -4 23 -20 45 -36 22 -17 42 -32 45 -35 3 -3 43 -34 90
-68 47 -34 90 -66 96 -71 6 -5 37 -26 70 -47 32 -22 65 -45 73 -52 7 -7 16
-10 19 -7 3 3 3 6 1 8 -29 20 -255 192 -259 197 -3 3 -26 22 -51 41 -155 117
-480 430 -624 602 -22 27 -51 61 -65 76 -14 15 -34 40 -45 55 -23 32 -71 96
-83 111 -4 6 -15 21 -25 35 -9 13 -17 20 -17 14z"/>
<path d="M8191 2814 c0 -11 3 -14 6 -6 3 7 2 16 -1 19 -3 4 -6 -2 -5 -13z"/>
<path d="M8221 2704 c0 -11 3 -14 6 -6 3 7 2 16 -1 19 -3 4 -6 -2 -5 -13z"/>
<path d="M8690 2660 c0 -5 5 -10 11 -10 5 0 7 5 4 10 -3 6 -8 10 -11 10 -2 0
-4 -4 -4 -10z"/>
<path d="M4850 2650 c0 -8 5 -22 10 -30 9 -13 10 -13 10 0 0 8 -5 22 -10 30
-9 13 -10 13 -10 0z"/>
<path d="M8241 2594 c0 -11 3 -14 6 -6 3 7 2 16 -1 19 -3 4 -6 -2 -5 -13z"/>
<path d="M4871 2590 c-1 -18 16 -46 23 -40 2 3 -2 16 -9 30 -8 15 -14 19 -14
10z"/>
<path d="M8252 2535 c0 -16 2 -22 5 -12 2 9 2 23 0 30 -3 6 -5 -1 -5 -18z"/>
<path d="M4893 2523 c24 -90 53 -173 60 -173 5 0 6 3 4 8 -2 4 -17 46 -32 95
-15 48 -30 87 -32 87 -3 0 -3 -8 0 -17z"/>
<path d="M8259 2488 c-4 -12 -3 -141 1 -148 3 -5 6 26 6 70 0 68 -2 90 -7 78z"/>
<path d="M8690 2381 c0 -6 4 -13 10 -16 6 -3 7 1 4 9 -7 18 -14 21 -14 7z"/>
<path d="M4950 2330 c0 -5 5 -10 11 -10 5 0 7 5 4 10 -3 6 -8 10 -11 10 -2 0
-4 -4 -4 -10z"/>
<path d="M4962 2290 c0 -14 2 -19 5 -12 2 6 2 18 0 25 -3 6 -5 1 -5 -13z"/>
<path d="M8691 2294 c0 -11 3 -14 6 -6 3 7 2 16 -1 19 -3 4 -6 -2 -5 -13z"/>
<path d="M8251 2244 c0 -11 3 -14 6 -6 3 7 2 16 -1 19 -3 4 -6 -2 -5 -13z"/>
<path d="M8681 2234 c0 -11 3 -14 6 -6 3 7 2 16 -1 19 -3 4 -6 -2 -5 -13z"/>
<path d="M8241 2204 c0 -11 3 -14 6 -6 3 7 2 16 -1 19 -3 4 -6 -2 -5 -13z"/>
<path d="M8221 2084 c0 -11 3 -14 6 -6 3 7 2 16 -1 19 -3 4 -6 -2 -5 -13z"/>
<path d="M8180 1930 c-6 -11 -8 -20 -6 -20 3 0 10 9 16 20 6 11 8 20 6 20 -3
0 -10 -9 -16 -20z"/>
<path d="M8143 1835 c-3 -9 -3 -18 -1 -21 3 -3 8 4 11 16 6 23 -1 27 -10 5z"/>
<path d="M8105 1739 c-4 -6 -5 -12 -2 -15 2 -3 7 2 10 11 7 17 1 20 -8 4z"/>
<path d="M8081 1687 c-13 -21 -12 -21 5 -5 10 10 16 20 13 22 -3 3 -11 -5 -18
-17z"/>
<path d="M8045 1619 c-4 -6 -5 -12 -2 -15 2 -3 7 2 10 11 7 17 1 20 -8 4z"/>
<path d="M8000 1539 c-7 -11 -10 -23 -7 -25 2 -2 9 7 15 21 14 30 7 33 -8 4z"/>
<path d="M7961 1473 c-10 -26 -10 -27 4 -9 8 11 15 23 15 28 0 15 -7 8 -19
-19z"/>
<path d="M8456 1453 c-6 -14 -5 -15 5 -6 7 7 10 15 7 18 -3 3 -9 -2 -12 -12z"/>
<path d="M7930 1425 c-7 -9 -11 -17 -9 -20 3 -2 10 5 17 15 14 24 10 26 -8 5z"/>
<path d="M3130 1426 c0 -2 7 -7 16 -10 8 -3 12 -2 9 4 -6 10 -25 14 -25 6z"/>
<path d="M3220 1376 c0 -3 9 -10 20 -16 11 -6 20 -8 20 -6 0 3 -9 10 -20 16
-11 6 -20 8 -20 6z"/>
<path d="M7883 1358 c-15 -20 -25 -38 -20 -38 3 0 12 11 21 25 17 26 16 35 -1
13z"/>
<path d="M3275 1340 c3 -5 11 -10 16 -10 6 0 7 5 4 10 -3 6 -11 10 -16 10 -6
0 -7 -4 -4 -10z"/>
<path d="M3341 1307 c2 -1 13 -9 24 -17 19 -14 19 -14 6 3 -7 9 -18 17 -24 17
-6 0 -8 -1 -6 -3z"/>
<path d="M3390 1276 c0 -2 7 -7 16 -10 8 -3 12 -2 9 4 -6 10 -25 14 -25 6z"/>
<path d="M7816 1263 c-6 -14 -5 -15 5 -6 7 7 10 15 7 18 -3 3 -9 -2 -12 -12z"/>
<path d="M3497 1219 c12 -12 24 -21 27 -18 2 2 -8 13 -22 23 l-27 19 22 -24z"/>
<path d="M7774 1208 l-19 -23 23 19 c12 11 22 21 22 23 0 8 -8 2 -26 -19z"/>
<path d="M3547 1189 c7 -7 15 -10 18 -7 3 3 -2 9 -12 12 -14 6 -15 5 -6 -5z"/>
<path d="M6185 1180 c-3 -6 1 -7 9 -4 18 7 21 14 7 14 -6 0 -13 -4 -16 -10z"/>
<path d="M3610 1166 c0 -3 9 -10 20 -16 11 -6 20 -8 20 -6 0 3 -9 10 -20 16
-11 6 -20 8 -20 6z"/>
<path d="M7719 1143 l-24 -28 28 24 c15 14 27 26 27 28 0 8 -8 1 -31 -24z"/>
<path d="M3676 1125 c10 -8 23 -15 28 -15 6 0 1 7 -10 15 -10 8 -23 15 -28 15
-6 0 -1 -7 10 -15z"/>
<path d="M3740 1096 c0 -2 7 -7 16 -10 8 -3 12 -2 9 4 -6 10 -25 14 -25 6z"/>
<path d="M3781 1077 c2 -1 13 -9 24 -17 19 -14 19 -14 6 3 -7 9 -18 17 -24 17
-6 0 -8 -1 -6 -3z"/>
<path d="M7645 1060 c-10 -11 -16 -22 -14 -24 2 -2 12 7 22 20 22 29 17 32 -8
4z"/>
<path d="M3870 1036 c0 -2 7 -7 16 -10 8 -3 12 -2 9 4 -6 10 -25 14 -25 6z"/>
<path d="M3910 1016 c0 -2 7 -7 16 -10 8 -3 12 -2 9 4 -6 10 -25 14 -25 6z"/>
<path d="M3950 996 c0 -2 7 -7 16 -10 8 -3 12 -2 9 4 -6 10 -25 14 -25 6z"/>
<path d="M4002 974 c10 -10 20 -16 22 -13 3 3 -5 11 -17 18 -21 13 -21 12 -5
-5z"/>
<path d="M8189 953 c-13 -16 -12 -17 4 -4 9 7 17 15 17 17 0 8 -8 3 -21 -13z"/>
<path d="M7525 940 c-3 -6 1 -7 9 -4 18 7 21 14 7 14 -6 0 -13 -4 -16 -10z"/>
<path d="M4120 920 c8 -5 20 -10 25 -10 6 0 3 5 -5 10 -8 5 -19 10 -25 10 -5
0 -3 -5 5 -10z"/>
<path d="M4220 880 c8 -5 20 -10 25 -10 6 0 3 5 -5 10 -8 5 -19 10 -25 10 -5
0 -3 -5 5 -10z"/>
<path d="M4380 820 c0 -5 5 -10 11 -10 5 0 7 5 4 10 -3 6 -8 10 -11 10 -2 0
-4 -4 -4 -10z"/>
<path d="M5956 775 c-9 -26 -7 -32 5 -12 6 10 9 21 6 23 -2 3 -7 -2 -11 -11z"/>
<path d="M7339 753 l-34 -38 38 34 c34 33 42 41 34 41 -2 0 -19 -17 -38 -37z"/>
<path d="M7269 693 l-24 -28 28 24 c15 14 27 26 27 28 0 8 -8 1 -31 -24z"/>
<path d="M7199 634 c-23 -25 -23 -26 -2 -13 13 7 25 19 27 26 8 19 2 16 -25
-13z"/>
<path d="M7120 569 c-22 -18 -22 -19 -3 -10 12 6 25 16 28 21 9 15 3 12 -25
-11z"/>
<path d="M7039 503 c-13 -16 -12 -17 4 -4 16 13 21 21 13 21 -2 0 -10 -8 -17
-17z"/>
<path d="M6949 433 c-13 -17 -13 -17 6 -3 11 8 22 16 24 17 2 2 0 3 -6 3 -6 0
-17 -8 -24 -17z"/>
<path d="M6839 353 c-13 -17 -13 -17 6 -3 11 8 22 16 24 17 2 2 0 3 -6 3 -6 0
-17 -8 -24 -17z"/>
<path d="M6773 309 c-24 -17 -43 -32 -43 -35 0 -3 20 9 45 26 25 17 45 33 45
35 0 7 -2 6 -47 -26z"/>
<path d="M6699 253 c-13 -16 -12 -17 4 -4 9 7 17 15 17 17 0 8 -8 3 -21 -13z"/>
<path d="M6564 164 c-18 -14 -18 -15 4 -4 12 6 22 13 22 15 0 8 -5 6 -26 -11z"/>
<path d="M6520 140 c-9 -6 -10 -10 -3 -10 6 0 15 5 18 10 8 12 4 12 -15 0z"/>
<path d="M6469 103 c-13 -17 -13 -17 6 -3 11 8 22 16 24 17 2 2 0 3 -6 3 -6 0
-17 -8 -24 -17z"/>
</g>
</svg>
